<svg width="60" height="60" xmlns="http://www.w3.org/2000/svg"><defs><linearGradient x1="50%" y1="0%" x2="50%" y2="100%" id="a"><stop stop-color="#FCC200" offset="0%"/><stop stop-color="#DBA515" offset="53.136%"/><stop stop-color="#B78628" offset="100%"/></linearGradient></defs><path d="M59.971 4.869c0-.264-.044-.483-.13-.658a.79.79 0 00-.525-.527.887.887 0 00-.656-.263h-9.176V1.185c0-.264-.131-.527-.393-.79A1.255 1.255 0 0048.173 0H11.73c-.35 0-.656.132-.918.395-.175.263-.262.526-.262.79V3.42H1.243a.887.887 0 00-.656.264c-.175.087-.306.263-.393.526a1.473 1.473 0 00-.132.658s-.472 15.37 1.18 20.13c1.099 3.169 5.331 7.632 9.963 8.948 1.835 4.386 6.773 7.85 14.813 10.395l.263 8.553-11.012 2.631c-.262 0-.48.132-.655.395-.175.263-.263.483-.263.658V60h31.331v-3.42c0-.176-.087-.396-.262-.659-.175-.263-.393-.395-.656-.395L33.49 52.895l.263-8.553c7.545-1.65 12.526-5.115 14.944-10.395 4.72-1.315 8.866-5.778 9.963-8.947 1.65-4.764 1.311-20.131 1.311-20.131zM10.55 27.763c-2.01-.701-3.87-1.827-4.326-3.816-.638-2.774-.376-10.02-.218-13.261a1.686 1.686 0 011.685-1.607h2.859v18.684zm43.26-3.816c-.504 2.018-2.404 3.115-4.326 3.816V9.08h2.868c.896 0 1.636.7 1.684 1.599.173 3.24.465 10.505-.226 13.27z" fill="url(#a)" fill-rule="evenodd"/></svg>