<svg version="1.1" id="Layer_1" xmlns="http://www.w3.org/2000/svg" x="0" y="0" viewBox="0 0 976 387" xml:space="preserve"><style>.st0{fill:#4d4d4d}</style><path class="st0" d="M474.82 89.6h39.94v224.37h-39.94zM789.99 89.6v215.73l-39.94 23.07V89.6zM681.77 73.69v95.45c-12.36-15.91-30.19-30.19-58.46-30.19-40.9 0-79.54 32.15-79.54 88.95v.66c0 56.8 39.27 88.95 79.54 88.95 27.94 0 45.81-14.28 58.46-32.15v28.61h39.94V50.62l-39.94 23.07zm.63 154.87c0 3.14-.22 6.2-.63 9.15-3.91 27.68-25.28 45.73-49.05 45.73-26.61 0-49.35-21.78-49.35-54.88v-.66c0-34.1 22.4-54.88 49.35-54.88 23.77 0 45.18 17.79 49.05 45.66.41 2.95.63 6.05.63 9.23v.65zM810.37 228.88v-.65c0-49.03 34.74-89.29 83.77-89.29 54.55 0 82.16 42.86 82.16 92.22 0 3.57-.33 7.14-.65 11.04H849.66c4.22 27.92 24.03 43.51 49.35 43.51 19.16 0 32.8-7.14 46.43-20.46l23.06 20.46c-16.24 19.48-38.64 32.15-70.14 32.15-49.67-.01-87.99-36.06-87.99-88.98zm126.96-12.67c-2.59-25.33-17.53-45.13-43.51-45.13-24.03 0-40.92 18.51-44.49 45.13h88z"/><linearGradient id="SVGID_1_" gradientUnits="userSpaceOnUse" x1="222.184" y1="363.489" x2="20.24" y2="92.923"><stop offset="0" stop-color="#6fa4f2"/><stop offset=".505" stop-color="#0f6beb"/><stop offset="1" stop-color="#0b50b0"/></linearGradient><path fill-rule="evenodd" clip-rule="evenodd" fill="url(#SVGID_1_)" d="M133.7 1v309.22H.84l-.84-.48V78.19l5.1-2.95z"/><linearGradient id="SVGID_2_" gradientUnits="userSpaceOnUse" x1="298.516" y1="306.517" x2="96.572" y2="35.951"><stop offset="0" stop-color="#6fa4f2"/><stop offset=".505" stop-color="#0f6beb"/><stop offset="1" stop-color="#0b50b0"/></linearGradient><path fill-rule="evenodd" clip-rule="evenodd" fill="url(#SVGID_2_)" d="M176.52 387V77.78h132.86l.84.48v231.55l-5.1 2.95z"/></svg>